<svg width="32" height="32" viewBox="0 0 32 32" fill="none" xmlns="http://www.w3.org/2000/svg">
<path d="M6 0.75H26C28.8995 0.75 31.25 3.10051 31.25 6V26C31.25 28.8995 28.8995 31.25 26 31.25H6C3.10051 31.25 0.75 28.8995 0.75 26V6C0.75 3.10051 3.10051 0.75 6 0.75Z" stroke="#D64763" stroke-width="1.5"/>
<path d="M22 13L21.15 23.17C21.06 24.21 20.2 25 19.16 25H12.84C11.8 25 10.93 24.2 10.85 23.17L10 13M12 10L13.22 7.55005C13.39 7.21005 13.74 7 14.11 7H17.87C18.25 7 18.6 7.21005 18.76 7.55005L19.98 10M16 16V22M19 16L18.59 22M13 16L13.41 22M22.53 13H9.46997C8.89997 13 8.44 12.54 8.44 11.97V11.02C8.44 10.45 8.89997 9.98999 9.46997 9.98999H22.53C23.1 9.98999 23.56 10.45 23.56 11.02V11.97C23.56 12.54 23.1 13 22.53 13Z" stroke="#D64763" stroke-width="1.5" stroke-miterlimit="10" stroke-linecap="round" stroke-linejoin="round"/>
</svg>
