<svg width="32" height="32" viewBox="0 0 32 32" fill="none" xmlns="http://www.w3.org/2000/svg">
<path d="M15.02 23.9975H16C20.94 23.9975 24.84 19.5174 23.84 14.3974C23.23 11.2774 20.72 8.76743 17.6 8.15743C12.48 7.15743 8 11.0575 8 15.9975M17.21 17.4375L14.59 14.8176M8.01999 21.3777L16.19 13.2075C16.58 12.8175 17.21 12.8175 17.6 13.2075L18.81 14.4175C19.2 14.8075 19.2 15.4377 18.81 15.8277L10.64 23.9976H8.01999V21.3777Z" stroke="#45AA44" stroke-width="1.5" stroke-miterlimit="10" stroke-linecap="round" stroke-linejoin="round"/>
<path d="M6 0.75H26C28.8995 0.75 31.25 3.10051 31.25 6V26C31.25 28.8995 28.8995 31.25 26 31.25H6C3.10051 31.25 0.75 28.8995 0.75 26V6C0.75 3.10051 3.10051 0.75 6 0.75Z" stroke="#45AA44" stroke-width="1.5"/>
</svg>
